<?xml version="1.0" encoding="UTF-8"?>
<svg xmlns="http://www.w3.org/2000/svg" width="1400" height="900" viewBox="0 0 1400 900">
  <g fill="none" stroke="#00338D" stroke-opacity="0.10" stroke-width="1.6"
     stroke-linecap="round" stroke-linejoin="round">

    <!-- ═══════════════════════════════════════════ -->
    <!--  ROW 1  (y ≈ 40 – 170)                     -->
    <!-- ═══════════════════════════════════════════ -->

    <!-- DNA DOUBLE HELIX  x:30-270 -->
    <path d="M30,100 C58,72 86,72 114,100 C142,128 170,128 198,100 C226,72 254,72 282,100"/>
    <path d="M30,100 C58,128 86,128 114,100 C142,72 170,72 198,100 C226,128 254,128 282,100"/>
    <line x1="72"  y1="76"  x2="72"  y2="124"/>
    <line x1="114" y1="100" x2="114" y2="100"/>
    <line x1="156" y1="76"  x2="156" y2="124"/>
    <line x1="198" y1="100" x2="198" y2="100"/>
    <line x1="240" y1="76"  x2="240" y2="124"/>

    <!-- ECG / HEARTBEAT TRACE  x:320-600 -->
    <path d="M320,105 L350,105 L358,96 L365,78 L372,55 L379,128 L386,105 L408,105
             L416,96 L423,78 L430,55 L437,128 L444,105 L466,105
             L474,96 L481,78 L488,55 L495,128 L502,105 L530,105
             L538,96 L545,78 L552,55 L559,128 L566,105 L590,105"/>

    <!-- SYRINGE  x:640-695, vertical -->
    <rect x="651" y="60" width="30" height="88" rx="4"/>
    <line x1="666" y1="33" x2="666" y2="60"/>
    <rect x="638" y="30" width="56" height="12" rx="4"/>
    <path d="M655,148 L659,148 L666,168 L673,148 L677,148"/>
    <line x1="681" y1="75"  x2="690" y2="75"/>
    <line x1="681" y1="91"  x2="693" y2="91"/>
    <line x1="681" y1="107" x2="690" y2="107"/>
    <line x1="681" y1="123" x2="693" y2="123"/>

    <!-- BENZENE / MOLECULE  x:740-870 -->
    <polygon points="805,58 838,77 838,115 805,134 772,115 772,77"/>
    <polygon points="805,70 826,82 826,108 805,120 784,108 784,82"/>
    <circle cx="805" cy="50" r="6"/><line x1="805" y1="56" x2="805" y2="58"/>
    <circle cx="846" cy="71" r="5"/><line x1="840" y1="75" x2="838" y2="77"/>
    <circle cx="846" cy="121" r="5"/><line x1="840" y1="117" x2="838" y2="115"/>
    <circle cx="805" cy="142" r="6"/><line x1="805" y1="136" x2="805" y2="134"/>
    <circle cx="764" cy="121" r="5"/><line x1="770" y1="117" x2="772" y2="115"/>
    <circle cx="764" cy="71"  r="5"/><line x1="770" y1="75"  x2="772" y2="77"/>

    <!-- FOOTBALL  x:920-1060 -->
    <ellipse cx="990" cy="100" rx="66" ry="42"/>
    <path d="M924,100 Q944,62 990,56 Q1036,62 1056,100"/>
    <path d="M924,100 Q944,138 990,144 Q1036,138 1056,100"/>
    <line x1="990" y1="66" x2="990" y2="134"/>
    <line x1="978" y1="74" x2="1002" y2="74"/>
    <line x1="978" y1="84" x2="1002" y2="84"/>
    <line x1="978" y1="94" x2="1002" y2="94"/>
    <line x1="978" y1="104" x2="1002" y2="104"/>
    <line x1="978" y1="114" x2="1002" y2="114"/>
    <line x1="978" y1="124" x2="1002" y2="124"/>

    <!-- FOOTBALL HELMET (Bills)  x:1100-1250 -->
    <path d="M1115,160 C1113,105 1112,65 1148,52 C1180,41 1218,58 1226,90 C1232,114 1224,148 1206,162"/>
    <line x1="1115" y1="162" x2="1206" y2="162"/>
    <path d="M1115,128 C1120,144 1126,156 1132,162"/>
    <path d="M1115,114 C1124,125 1137,136 1152,143 L1180,146"/>
    <path d="M1115,100 C1126,108 1144,117 1168,121 L1200,123"/>
    <circle cx="1140" cy="118" r="11"/>
    <path d="M1144,72 C1156,65 1178,63 1196,70 C1214,77 1225,88 1224,100"/>
    <path d="M1115,162 C1130,176 1158,183 1184,178 C1202,173 1215,164 1218,155"/>

    <!-- ═══════════════════════════════════════════ -->
    <!--  ROW 2  (y ≈ 200 – 410)                    -->
    <!-- ═══════════════════════════════════════════ -->

    <!-- STETHOSCOPE  x:30-215 -->
    <circle cx="122" cy="382" r="22"/>
    <circle cx="122" cy="382" r="13"/>
    <path d="M122,360 C122,336 116,318 100,303 C84,288 66,270 59,245"/>
    <path d="M122,360 C122,336 128,318 144,303 C160,288 178,270 185,245"/>
    <ellipse cx="67"  cy="238" rx="7" ry="6"/>
    <ellipse cx="177" cy="238" rx="7" ry="6"/>
    <path d="M60,244 C57,236 60,228 67,226 C74,224 81,228 83,236"/>
    <path d="M170,244 C173,236 170,228 163,226 C156,224 149,228 147,236"/>

    <!-- MICROSCOPE  x:255-415 -->
    <path d="M263,405 L403,405 L392,387 L274,387 Z"/>
    <rect x="316" y="258" width="30" height="129"/>
    <rect x="276" y="316" width="112" height="15"/>
    <line x1="300" y1="316" x2="300" y2="331"/>
    <line x1="364" y1="316" x2="364" y2="331"/>
    <path d="M331,316 L331,284"/>
    <path d="M331,284 C325,275 322,260 324,248 C326,236 331,227 331,227"/>
    <path d="M331,258 C327,238 325,225 325,214 L337,214 C337,225 335,238 331,258"/>
    <ellipse cx="331" cy="212" rx="15" ry="7"/>
    <ellipse cx="303" cy="332" rx="11" ry="15"/>
    <ellipse cx="359" cy="332" rx="11" ry="15"/>
    <line x1="316" y1="272" x2="306" y2="272"/>
    <line x1="316" y1="287" x2="306" y2="287"/>
    <line x1="316" y1="302" x2="306" y2="302"/>

    <!-- FLY FISHING SCENE  x:450-750 -->
    <line x1="462" y1="400" x2="748" y2="240"/>
    <circle cx="484" cy="384" r="20"/>
    <circle cx="484" cy="384" r="11"/>
    <path d="M748,240 Q790,285 772,332 Q758,362 730,380"/>
    <circle cx="730" cy="381" r="5"/>
    <path d="M726,377 C717,366 722,358 732,366"/>
    <path d="M734,377 C743,366 738,358 728,366"/>
    <!-- Fish -->
    <path d="M696,394 C710,381 736,381 750,388 C764,395 762,406 750,411
             C736,416 710,416 696,398 Z"/>
    <path d="M696,396 C689,384 682,391 689,400 C682,400 689,410 696,396"/>
    <circle cx="745" cy="394" r="4"/>
    <ellipse cx="722" cy="414" rx="24" ry="7"/>
    <ellipse cx="722" cy="414" rx="36" ry="10"/>
    <path d="M660,403 C666,397 675,396 681,401"/>
    <path d="M762,403 C768,397 777,396 783,401"/>

    <!-- MOUNTAIN PEAKS  x:810-1010 -->
    <polyline points="810,405 854,272 898,328 936,244 976,308 1010,405"/>
    <polyline points="840,296 854,272 868,296"/>
    <polyline points="922,264 936,244 950,264"/>
    <line x1="820" y1="405" x2="820" y2="368"/>
    <path d="M812,386 L820,362 L828,386"/>
    <path d="M812,374 L820,348 L828,374"/>
    <line x1="838" y1="405" x2="838" y2="374"/>
    <path d="M830,394 L838,368 L846,394"/>
    <path d="M966,255 L970,266 L981,266 L972,274 L975,285 L966,278
             L957,285 L960,274 L951,266 L962,266 Z"/>

    <!-- FEMUR / ORTHOPEDIC IMPLANT  x:1060-1210 -->
    <rect x="1116" y="288" width="24" height="96" rx="6"/>
    <circle cx="1146" cy="265" r="28"/>
    <path d="M1122,282 C1120,269 1128,256 1142,261 C1153,265 1154,278 1148,284"/>
    <path d="M1110,384 C1100,399 1107,416 1122,414 C1130,416 1134,407 1124,398"/>
    <path d="M1140,384 C1150,399 1143,416 1128,414 C1120,416 1116,407 1124,398"/>
    <line x1="1116" y1="302" x2="1104" y2="302"/>
    <line x1="1116" y1="318" x2="1104" y2="318"/>
    <line x1="1116" y1="334" x2="1104" y2="334"/>
    <line x1="1116" y1="350" x2="1104" y2="350"/>
    <line x1="1140" y1="302" x2="1152" y2="302"/>
    <line x1="1140" y1="318" x2="1152" y2="318"/>
    <line x1="1140" y1="334" x2="1152" y2="334"/>

    <!-- ═══════════════════════════════════════════ -->
    <!--  ROW 3  (y ≈ 460 – 640)                    -->
    <!-- ═══════════════════════════════════════════ -->

    <!-- BEAKER + ERLENMEYER FLASK  x:30-250 -->
    <path d="M38,630 L38,480 L106,480 L106,630 Z"/>
    <line x1="30"  y1="480" x2="114" y2="480"/>
    <path d="M106,494 C117,494 126,501 126,511 C126,517 124,522 119,525"/>
    <line x1="39"  y1="568" x2="105" y2="568"/>
    <circle cx="62" cy="588" r="5"/>
    <circle cx="78" cy="600" r="4"/>
    <circle cx="70" cy="608" r="6"/>
    <line x1="106" y1="520" x2="115" y2="520"/>
    <line x1="106" y1="542" x2="120" y2="542"/>
    <line x1="106" y1="564" x2="115" y2="564"/>
    <line x1="106" y1="586" x2="120" y2="586"/>
    <line x1="106" y1="608" x2="115" y2="608"/>
    <!-- Erlenmeyer -->
    <path d="M160,474 L160,518 L134,578 C130,590 134,630 184,630
             C234,630 238,590 234,578 L208,518 L208,474 Z"/>
    <line x1="152" y1="474" x2="216" y2="474"/>
    <line x1="143" y1="570" x2="224" y2="570"/>
    <circle cx="166" cy="592" r="6"/>
    <circle cx="190" cy="604" r="5"/>
    <circle cx="177" cy="614" r="7"/>

    <!-- CELL  x:275-465 -->
    <ellipse cx="370" cy="546" rx="82" ry="86"/>
    <ellipse cx="358" cy="532" rx="34" ry="38"/>
    <circle  cx="356" cy="530" r="13"/>
    <ellipse cx="420" cy="570" rx="17" ry="10" transform="rotate(-30 420 570)"/>
    <ellipse cx="308" cy="560" rx="15" ry="8"  transform="rotate(25 308 560)"/>
    <ellipse cx="425" cy="518" rx="13" ry="8"  transform="rotate(-15 425 518)"/>
    <path d="M374,546 C388,538 402,542 408,554 C414,566 406,578 392,574"/>
    <circle cx="320" cy="600" r="4"/>
    <circle cx="338" cy="612" r="3"/>
    <circle cx="358" cy="607" r="4"/>
    <circle cx="378" cy="612" r="3"/>
    <circle cx="396" cy="601" r="4"/>

    <!-- ATOM  x:500-690 -->
    <circle cx="594" cy="548" r="13"/>
    <ellipse cx="594" cy="548" rx="76" ry="32"/>
    <ellipse cx="594" cy="548" rx="76" ry="32" transform="rotate(60 594 548)"/>
    <ellipse cx="594" cy="548" rx="76" ry="32" transform="rotate(120 594 548)"/>
    <circle cx="670" cy="548" r="6"/>
    <circle cx="556" cy="521" r="6"/>
    <circle cx="632" cy="575" r="6"/>

    <!-- HIP IMPLANT STEM  x:718-886 -->
    <path d="M778,634 C772,614 764,580 770,545 C774,522 786,500 800,486
             C808,476 820,470 826,476 C838,483 834,502 824,514
             C812,528 806,558 810,586 C814,608 820,624 820,634"/>
    <circle cx="826" cy="475" r="30"/>
    <path d="M798,494 C795,480 803,466 816,463 C828,460 837,466 838,477"/>
    <path d="M796,492 C789,506 792,522 802,528 C810,533 818,528 820,520"/>

    <!-- OPEN BOOK  x:920-1080 -->
    <path d="M920,596 L920,472 C938,465 962,465 1006,472 L1006,596 Z"/>
    <path d="M1006,596 L1006,472 C1050,465 1074,465 1092,472 L1092,596 Z"/>
    <line x1="1006" y1="472" x2="1006" y2="596"/>
    <line x1="933" y1="490" x2="992" y2="490"/>
    <line x1="933" y1="504" x2="992" y2="504"/>
    <line x1="933" y1="518" x2="986" y2="518"/>
    <line x1="933" y1="532" x2="992" y2="532"/>
    <line x1="933" y1="546" x2="984" y2="546"/>
    <line x1="933" y1="560" x2="992" y2="560"/>
    <line x1="933" y1="574" x2="988" y2="574"/>
    <line x1="1018" y1="490" x2="1078" y2="490"/>
    <line x1="1018" y1="504" x2="1078" y2="504"/>
    <line x1="1018" y1="518" x2="1072" y2="518"/>
    <line x1="1018" y1="532" x2="1078" y2="532"/>
    <line x1="1018" y1="546" x2="1070" y2="546"/>
    <line x1="1018" y1="560" x2="1078" y2="560"/>

    <!-- KAYAK PADDLE  x:1120-1390 -->
    <line x1="1128" y1="596" x2="1384" y2="488"/>
    <path d="M1128,596 C1115,584 1107,566 1112,551
             C1117,536 1132,531 1140,541 C1144,547 1137,565 1128,596"/>
    <path d="M1384,488 C1397,476 1405,458 1400,443
             C1395,428 1381,424 1373,434 C1369,440 1376,458 1384,488"/>
    <line x1="1238" y1="546" x2="1247" y2="542"/>
    <line x1="1247" y1="543" x2="1256" y2="539"/>
    <line x1="1256" y1="540" x2="1265" y2="536"/>

    <!-- ═══════════════════════════════════════════ -->
    <!--  ROW 4  (y ≈ 670 – 880)                    -->
    <!-- ═══════════════════════════════════════════ -->

    <!-- PACEMAKER / IMPLANTABLE DEVICE  x:30-210 -->
    <path d="M52,852 C40,852 30,842 30,826 L30,764
             C30,748 42,736 58,736 L168,736
             C184,736 196,748 196,764 L196,826
             C196,842 184,852 168,852 Z"/>
    <path d="M62,748 C50,736 44,713 51,696 C58,679 73,671 86,673"/>
    <path d="M70,744 C58,732 52,710 59,693 C66,676 81,668 94,670"/>
    <line x1="52"  y1="770" x2="108" y2="770"/>
    <line x1="108" y1="770" x2="108" y2="794"/>
    <line x1="108" y1="794" x2="84"  y2="794"/>
    <line x1="84"  y1="794" x2="84"  y2="812"/>
    <line x1="84"  y1="812" x2="170" y2="812"/>
    <circle cx="108" cy="770" r="4"/>
    <circle cx="84"  cy="794" r="3"/>
    <path d="M50,755 L66,755 L70,744 L74,769 L78,739 L82,755 L100,755"/>

    <!-- ANATOMICAL HEART  x:245-435 -->
    <path d="M338,708 C324,684 292,682 278,704
             C264,726 272,750 338,796
             C404,750 412,726 398,704
             C384,682 352,684 338,708 Z"/>
    <path d="M321,708 C315,692 321,676 333,672
             C345,668 354,672 357,683"/>
    <path d="M357,688 C368,674 383,670 393,680
             C400,687 399,698 390,703"/>
    <line x1="338" y1="715" x2="338" y2="784"/>
    <path d="M323,730 C325,722 332,722 336,730
             C340,738 346,738 350,730"/>
    <path d="M324,745 C326,737 333,737 337,745
             C341,753 348,753 351,745"/>
    <path d="M296,758 C305,750 318,752 323,761
             C328,770 321,782 311,777"/>
    <path d="M362,758 C353,750 340,752 336,761
             C332,770 338,782 348,777"/>

    <!-- SIGNAL / DATA WAVEFORM  x:470-720 -->
    <path d="M472,754 L500,754 L509,734 L518,774 L527,714
             L536,790 L545,754 L570,754 L579,736 L588,776 L597,718
             L606,792 L615,754 L644,754 L653,738 L662,778 L671,720
             L680,794 L689,754 L716,754"/>

    <!-- ENGINEERING FREE BODY DIAGRAM  x:756-956 -->
    <rect x="824" y="748" width="68" height="54" rx="5"/>
    <line x1="858" y1="748" x2="858" y2="718"/>
    <polyline points="850,726 858,718 866,726"/>
    <line x1="858" y1="802" x2="858" y2="832"/>
    <polyline points="850,824 858,832 866,824"/>
    <line x1="824" y1="775" x2="792" y2="775"/>
    <polyline points="800,767 792,775 800,783"/>
    <line x1="892" y1="775" x2="924" y2="775"/>
    <polyline points="916,767 924,775 916,783"/>
    <line x1="792" y1="834" x2="924" y2="834"/>
    <line x1="804" y1="844" x2="912" y2="844"/>
    <line x1="818" y1="854" x2="898" y2="854"/>
    <line x1="772" y1="720" x2="798" y2="748"/>
    <line x1="784" y1="720" x2="810" y2="748"/>

    <!-- BUFFALO / BISON OUTLINE  x:990-1180 -->
    <!-- Body -->
    <path d="M1020,800 C1016,778 1022,758 1036,750
             L1036,736 C1020,732 1008,718 1008,702
             C1008,686 1020,674 1036,674
             C1044,674 1050,678 1055,684
             C1058,675 1066,668 1076,668
             C1090,668 1099,680 1094,694
             L1088,694 C1079,684 1067,686 1064,700
             C1083,700 1097,714 1097,730
             C1097,742 1090,753 1078,758
             L1078,800"/>
    <!-- Legs -->
    <line x1="1032" y1="802" x2="1032" y2="822"/>
    <line x1="1045" y1="802" x2="1045" y2="826"/>
    <line x1="1062" y1="802" x2="1062" y2="826"/>
    <line x1="1076" y1="802" x2="1076" y2="822"/>
    <!-- Head detail / horns -->
    <path d="M1040,680 C1038,667 1029,660 1018,660
             C1012,660 1006,664 1004,670"/>
    <path d="M1060,680 C1062,667 1071,660 1082,660
             C1088,660 1094,664 1096,670"/>
    <circle cx="1036" cy="688" r="5"/>
    <!-- Shoulder hump -->
    <path d="M1020,742 C1015,730 1016,718 1025,712
             L1055,706"/>

    <!-- HIKING BOOT  x:1220-1390 -->
    <path d="M1244,832 L1244,758
             C1244,726 1260,706 1287,700
             L1320,697 C1348,695 1364,712 1362,735
             L1358,758 L1408,758
             C1425,758 1436,769 1433,786
             L1422,832 Z"/>
    <path d="M1232,832 C1232,843 1240,851 1251,851
             L1430,851 C1441,851 1447,843 1444,832"/>
    <line x1="1270" y1="714" x2="1306" y2="714"/>
    <line x1="1267" y1="727" x2="1308" y2="727"/>
    <line x1="1264" y1="740" x2="1310" y2="740"/>
    <line x1="1261" y1="753" x2="1312" y2="753"/>
    <line x1="1244" y1="802" x2="1422" y2="802"/>
    <line x1="1358" y1="758" x2="1358" y2="802"/>

  </g>
</svg>
